<svg xmlns="http://www.w3.org/2000/svg" viewBox="0 0 40 40"><defs><style>.cls-1{fill:#fff;fill-rule:evenodd;}</style></defs><title>Fichier 6</title><g id="Calque_2" data-name="Calque 2"><g id="White_Icons" data-name="White Icons"><g id="Sun_Icon" data-name="Sun Icon"><path class="cls-1" d="M39,19H33a1,1,0,0,0,0,2h6a1,1,0,0,0,0-2ZM10.1,11.51a1,1,0,0,0,1.42,0,1,1,0,0,0,0-1.41L7.27,5.85a1,1,0,0,0-1.41,0,1,1,0,0,0,0,1.42Zm19.8,0,4.24-4.24a1,1,0,0,0,0-1.41,1,1,0,0,0-1.42,0L28.48,10.1a1,1,0,1,0,1.42,1.41ZM20,8a1,1,0,0,0,1-1V1a1,1,0,0,0-2,0V7A1,1,0,0,0,20,8ZM8,20a1,1,0,0,0-1-1H1a1,1,0,0,0,0,2H7A1,1,0,0,0,8,20ZM20,10A10,10,0,1,0,30,20,10,10,0,0,0,20,10Zm0,18a8,8,0,1,1,8-8A8,8,0,0,1,20,28Zm9.9.48a1,1,0,0,0-1.41,0,1,1,0,0,0,0,1.42l4.24,4.24a1,1,0,0,0,1.41,0,1,1,0,0,0,0-1.42Zm-19.8,0L5.85,32.73a1,1,0,0,0,0,1.41,1,1,0,0,0,1.42,0l4.24-4.24a1,1,0,0,0,0-1.41A1,1,0,0,0,10.1,28.49ZM20,32a1,1,0,0,0-1,1v6a1,1,0,0,0,2,0V33A1,1,0,0,0,20,32Z"/></g></g></g></svg>