<svg xmlns="http://www.w3.org/2000/svg" viewBox="0 0 23.92 25.97"><defs><style>.cls-1{fill:#fff;fill-rule:evenodd;}</style></defs><title>Fichier 5</title><g id="Calque_2" data-name="Calque 2"><g id="White_Icons" data-name="White Icons"><g id="Moon_icon" data-name="Moon icon"><path class="cls-1" d="M11.67,0a1,1,0,0,0-.95.52,1,1,0,0,0,.06,1.06A10.9,10.9,0,0,1,12.85,8,11.06,11.06,0,0,1,1.77,19l-.53,0-.17,0a1,1,0,0,0-.94.52,1,1,0,0,0,.06,1.06A13.09,13.09,0,0,0,23.92,13,13.05,13.05,0,0,0,11.67,0Zm-.83,24A11.13,11.13,0,0,1,3.17,20.9,13.06,13.06,0,0,0,14.86,8a12.83,12.83,0,0,0-1.3-5.66A11,11,0,0,1,10.84,24Z"/></g></g></g></svg>