<svg xmlns="http://www.w3.org/2000/svg" viewBox="0 0 54 39"><defs><style>.cls-1{fill:#fff;fill-rule:evenodd;}</style></defs><title>Fichier 4</title><g id="Calque_2" data-name="Calque 2"><g id="White_Icons" data-name="White Icons"><g id="Cloudy_Icon" data-name="Cloudy Icon"><path class="cls-1" d="M29.9,11.51l4.24-4.24a1,1,0,0,0,0-1.41,1,1,0,0,0-1.42,0L28.48,10.1a1,1,0,1,0,1.42,1.41ZM20,8a1,1,0,0,0,1-1V1a1,1,0,0,0-2,0V7A1,1,0,0,0,20,8Zm19.49,2a14.53,14.53,0,0,0-10.88,5A10,10,0,0,0,10,20a9.8,9.8,0,0,0,1.4,5A7,7,0,0,0,12,39H40a14.5,14.5,0,0,0-.55-29ZM20,12a8,8,0,0,1,7.28,4.72,14.44,14.44,0,0,0-1.37,2.72A9.88,9.88,0,0,0,23,19a10,10,0,0,0-9.16,6A7.89,7.89,0,0,1,12,20,8,8,0,0,1,20,12ZM40,37H12a5,5,0,1,1,2-9.6,1,1,0,0,0,.82,0,1,1,0,0,0,.53-.63A8,8,0,0,1,23,21a7.93,7.93,0,0,1,3.15.65,1,1,0,0,0,.82,0A1,1,0,0,0,27.5,21,12.5,12.5,0,1,1,40,37ZM8,20a1,1,0,0,0-1-1H1a1,1,0,0,0,0,2H7A1,1,0,0,0,8,20Zm2.1-8.49a1,1,0,0,0,1.42,0,1,1,0,0,0,0-1.41L7.27,5.85a1,1,0,0,0-1.41,0,1,1,0,0,0,0,1.42Z"/></g></g></g></svg>