<svg xmlns="http://www.w3.org/2000/svg" viewBox="0 0 49 35.97"><defs><style>.cls-1{fill:#fff;fill-rule:evenodd;}</style></defs><title>Fichier 3</title><g id="Calque_2" data-name="Calque 2"><g id="White_Icons" data-name="White Icons"><g id="Cloudy_Icon" data-name="Cloudy Icon"><path class="cls-1" d="M34.5,7a14.56,14.56,0,0,0-10.61,4.65A13.05,13.05,0,0,0,11.73,0a1,1,0,0,0-1,.52,1,1,0,0,0,.07,1.06A10.89,10.89,0,0,1,12.91,8,11.05,11.05,0,0,1,1.84,19L1.3,19l-.17,0a1,1,0,0,0-.94.52,1,1,0,0,0,.06,1.06A13,13,0,0,0,3,23.27,7,7,0,0,0,7,36H35A14.5,14.5,0,0,0,34.5,7ZM14.92,8a12.83,12.83,0,0,0-1.3-5.66A11,11,0,0,1,22,13a10.85,10.85,0,0,1-.1,1.4,13.52,13.52,0,0,0-.95,2A10,10,0,0,0,8.74,22.19,7.27,7.27,0,0,0,7,22a7.09,7.09,0,0,0-2,.28A11.89,11.89,0,0,1,3.23,20.9,13.05,13.05,0,0,0,14.92,8ZM35,34H7A5,5,0,1,1,7,24a4.88,4.88,0,0,1,2,.4,1,1,0,0,0,.82,0,1,1,0,0,0,.53-.63A8,8,0,0,1,18,18a7.93,7.93,0,0,1,3.15.65,1,1,0,0,0,.83,0A1,1,0,0,0,22.5,18,12.5,12.5,0,1,1,35,34Z"/></g></g></g></svg>