<svg xmlns="http://www.w3.org/2000/svg" viewBox="0 0 49 29"><defs><style>.cls-1{fill:#fff;fill-rule:evenodd;}</style></defs><title>Fichier 2</title><g id="Calque_2" data-name="Calque 2"><g id="White_Icons" data-name="White Icons"><g id="Cloudy_Icon" data-name="Cloudy Icon"><path class="cls-1" d="M34.5,0A14.57,14.57,0,0,0,20.92,9.44,10,10,0,0,0,8.74,15.22,6.8,6.8,0,0,0,7,15,7,7,0,0,0,7,29H35A14.5,14.5,0,0,0,34.5,0ZM35,27H7a5,5,0,1,1,2-9.6,1,1,0,0,0,1.35-.64A8,8,0,0,1,18,11a7.93,7.93,0,0,1,3.15.65,1,1,0,0,0,.83,0A1,1,0,0,0,22.5,11,12.5,12.5,0,1,1,35,27Z"/></g></g></g></svg>