<svg xmlns="http://www.w3.org/2000/svg" viewBox="0 0 54 48.06"><defs><style>.cls-1{fill:#fff;fill-rule:evenodd;}</style></defs><title>Fichier 8</title><g id="Calque_2" data-name="Calque 2"><g id="White_Icons" data-name="White Icons"><g id="Rain_Icon" data-name="Rain Icon"><path class="cls-1" d="M22.25,44.46a1,1,0,0,0-1.36.37l-1,1.73a1,1,0,0,0,.36,1.37,1,1,0,0,0,1.37-.37l1-1.73A1,1,0,0,0,22.25,44.46Zm-4.25-3a1,1,0,0,0-1.37.37l-1,1.73a1,1,0,1,0,1.73,1l1-1.73A1,1,0,0,0,18,41.46Zm2.36-2.09,1-1.74A1,1,0,0,0,21,36.27a1,1,0,0,0-1.37.36l-1,1.74a1,1,0,0,0,1.73,1ZM10.1,11.51a1,1,0,0,0,1.42,0,1,1,0,0,0,0-1.41L7.27,5.85a1,1,0,0,0-1.41,0,1,1,0,0,0,0,1.42Zm19.8,0,4.24-4.24a1,1,0,0,0,0-1.41,1,1,0,0,0-1.42,0L28.48,10.1a1,1,0,1,0,1.42,1.41ZM20,8a1,1,0,0,0,1-1V1a1,1,0,0,0-2,0V7A1,1,0,0,0,20,8ZM8,20a1,1,0,0,0-1-1H1a1,1,0,0,0,0,2H7A1,1,0,0,0,8,20ZM36,31.07a1,1,0,0,0-1.37.37l-1,1.73a1,1,0,1,0,1.73,1l1-1.73A1,1,0,0,0,36,31.07Zm-3,5.2a1,1,0,0,0-1.37.36l-1,1.74a1,1,0,0,0,1.73,1l1-1.74A1,1,0,0,0,33,36.27ZM39.49,10a14.53,14.53,0,0,0-10.88,5,10,10,0,1,0-17.2,10.1A7,7,0,0,0,12,39h2a1,1,0,0,0,0-2H12a5,5,0,1,1,2-9.6,1,1,0,0,0,.82,0,1,1,0,0,0,.53-.63A8,8,0,0,1,23,21a7.93,7.93,0,0,1,3.15.65,1,1,0,0,0,.82,0A1,1,0,0,0,27.5,21,12.5,12.5,0,1,1,40,37H38a1,1,0,0,0,0,2h2a14.5,14.5,0,0,0-.55-29ZM25.91,19.44A9.88,9.88,0,0,0,23,19a10,10,0,0,0-9.16,6A7.89,7.89,0,0,1,12,20a8,8,0,0,1,15.28-3.28A14.44,14.44,0,0,0,25.91,19.44Zm-.66,19.83a1,1,0,0,0-1.36.36l-1,1.74a1,1,0,0,0,.36,1.36,1,1,0,0,0,1.37-.36l1-1.74A1,1,0,0,0,25.25,39.27Zm-1.89-5.1,1-1.73A1,1,0,0,0,24,31.07a1,1,0,0,0-1.37.37l-1,1.73a1,1,0,1,0,1.73,1Zm5.26,1.27a1,1,0,0,0-.37-1.37,1,1,0,0,0-1.36.37l-1,1.73a1,1,0,0,0,.36,1.37,1,1,0,0,0,1.37-.37Zm1.38,6a1,1,0,0,0-1.37.37l-1,1.73a1,1,0,1,0,1.73,1l1-1.73A1,1,0,0,0,30,41.46Z"/></g></g></g></svg>