<svg xmlns="http://www.w3.org/2000/svg" viewBox="0 0 49 45.04"><defs><style>.cls-1{fill:#fff;fill-rule:evenodd;}</style></defs><title>Fichier 9</title><g id="Calque_2" data-name="Calque 2"><g id="White_Icons" data-name="White Icons"><g id="Rain_Icon" data-name="Rain Icon"><path class="cls-1" d="M20.25,36.24a1,1,0,0,0-1.36.37l-1,1.73a1,1,0,1,0,1.73,1l1-1.73A1,1,0,0,0,20.25,36.24Zm-1.88-5.1,1-1.73a1,1,0,0,0-1.74-1l-1,1.73a1,1,0,0,0,1.74,1ZM13,38.44a1,1,0,0,0-1.37.36l-1,1.74a1,1,0,0,0,1.74,1l1-1.74A1,1,0,0,0,13,38.44Zm2.37-2.1,1-1.73a1,1,0,1,0-1.74-1l-1,1.73a1,1,0,0,0,1.74,1Zm1.88,5.1a1,1,0,0,0-1.36.36l-1,1.74a1,1,0,0,0,.36,1.36,1,1,0,0,0,1.37-.36l1-1.74A1,1,0,0,0,17.25,41.44ZM31,28.05a1,1,0,0,0-1.37.36l-1,1.73a1,1,0,0,0,1.74,1l1-1.73A1,1,0,0,0,31,28.05ZM34.5,7a14.56,14.56,0,0,0-10.61,4.65A13.05,13.05,0,0,0,11.73,0a1,1,0,0,0-1,.52,1,1,0,0,0,.07,1.06A10.89,10.89,0,0,1,12.91,8,11.05,11.05,0,0,1,1.84,19L1.3,19l-.17,0a1,1,0,0,0-.94.52,1,1,0,0,0,.06,1.06A12.72,12.72,0,0,0,3,23.27,7,7,0,0,0,7,36H9a1,1,0,0,0,0-2H7A5,5,0,1,1,7,24a4.88,4.88,0,0,1,2,.4,1,1,0,0,0,.82,0,1,1,0,0,0,.53-.63A8,8,0,0,1,18,18a7.93,7.93,0,0,1,3.15.65,1,1,0,0,0,.83,0A1,1,0,0,0,22.5,18,12.5,12.5,0,1,1,35,34H33a1,1,0,0,0,0,2h2A14.5,14.5,0,0,0,34.5,7Zm-12.63,7.4a13.52,13.52,0,0,0-.95,2A10,10,0,0,0,8.74,22.19,7.27,7.27,0,0,0,7,22a6.76,6.76,0,0,0-1.92.3A11.27,11.27,0,0,1,3.23,20.9,13.05,13.05,0,0,0,14.92,8a12.83,12.83,0,0,0-1.3-5.66A11,11,0,0,1,22,13,10.85,10.85,0,0,1,21.87,14.37ZM28,33.24a1,1,0,0,0-1.37.37l-1,1.73a1,1,0,0,0,1.74,1l1-1.73A1,1,0,0,0,28,33.24Zm-3,5.2a1,1,0,0,0-1.37.36l-1,1.74a1,1,0,0,0,1.74,1l1-1.74A1,1,0,0,0,25,38.44Zm-1.38-6a1,1,0,0,0-1.73-1l-1,1.73a1,1,0,1,0,1.73,1Z"/></g></g></g></svg>