<svg xmlns="http://www.w3.org/2000/svg" viewBox="0 0 49 39.71"><defs><style>.cls-1{fill:#fff;fill-rule:evenodd;}</style></defs><title>Fichier 12</title><g id="Calque_2" data-name="Calque 2"><g id="White_Icons" data-name="White Icons"><g id="Snow_Icon" data-name="Snow Icon"><path class="cls-1" d="M16,22.47a.5.5,0,0,0,.5.5h1.12v0l-.55,1a.5.5,0,1,0,.86.5l.56-1h0l.56,1A.5.5,0,1,0,20,24l-.57-1h1.14a.5.5,0,0,0,0-1H19.38L20,21a.5.5,0,1,0-.86-.5l-.57,1-.57-1a.5.5,0,1,0-.86.5l.56,1H16.52A.5.5,0,0,0,16,22.47Zm5,3a.5.5,0,0,0,.5.5h1.12v0l-.55,1a.5.5,0,1,0,.86.5l.56-1h0l.56,1a.5.5,0,1,0,.86-.5l-.56-1h1.13a.5.5,0,1,0,0-1H24.38l.56-1a.5.5,0,1,0-.86-.5l-.57,1-.57-1a.5.5,0,1,0-.86.5l.56,1H21.51A.5.5,0,0,0,21,25.47Zm-9,3a.5.5,0,0,0,.5.5h1.12s0,0,0,0l-.56,1a.5.5,0,0,0,.18.68.51.51,0,0,0,.69-.18l.55-1h0l.56,1a.5.5,0,0,0,.68.18.5.5,0,0,0,.19-.68l-.57-1H16.5a.5.5,0,0,0,.5-.5.5.5,0,0,0-.5-.5H15.37l.57-1a.5.5,0,0,0-.87-.5l-.57,1-.56-1a.5.5,0,0,0-.87.5l.57,1H12.5A.51.51,0,0,0,12,28.49ZM13.51,34H12.38l.56-1a.5.5,0,1,0-.86-.5l-.57,1-.57-1a.5.5,0,1,0-.86.5l.56,1H9.51a.5.5,0,0,0-.5.5.5.5,0,0,0,.5.5h1.12v0l-.55,1a.51.51,0,0,0,.18.69.49.49,0,0,0,.68-.19l.56-1h0l.56,1a.5.5,0,0,0,.68.19.51.51,0,0,0,.18-.69l-.56-1h1.13a.5.5,0,0,0,.5-.5A.5.5,0,0,0,13.51,34Zm5,3H17.4L18,36a.51.51,0,0,0-.19-.68.49.49,0,0,0-.68.18l-.57,1-.56-1a.51.51,0,0,0-.69-.18.49.49,0,0,0-.18.68l.57,1H14.53a.51.51,0,0,0-.5.5.5.5,0,0,0,.5.5h1.12s0,0,0,0l-.56,1a.5.5,0,1,0,.87.5l.55-1h0l.56,1a.5.5,0,0,0,.68.19A.52.52,0,0,0,18,39l-.57-1h1.13a.5.5,0,0,0,.5-.5A.5.5,0,0,0,18.53,37ZM32.36,23h1.13a.5.5,0,0,0,0-1H32.36l.56-1a.5.5,0,1,0-.86-.5l-.57,1-.57-1a.5.5,0,1,0-.86.5l.57,1H29.49a.5.5,0,1,0,0,1h1.12v0l-.55,1a.5.5,0,1,0,.86.5l.56-1h0l.56,1a.5.5,0,1,0,.86-.5ZM34.5,0A14.57,14.57,0,0,0,20.92,9.44,10,10,0,0,0,8.74,15.22,6.8,6.8,0,0,0,7,15,7,7,0,0,0,7,29H9a1,1,0,0,0,0-2H7a5,5,0,1,1,2-9.6,1,1,0,0,0,1.35-.64A8,8,0,0,1,18,11a7.93,7.93,0,0,1,3.15.65,1,1,0,0,0,.83,0A1,1,0,0,0,22.5,11,12.5,12.5,0,1,1,35,27H34a1,1,0,0,0,0,2h1A14.5,14.5,0,0,0,34.5,0Zm-4,28H29.37l.57-1a.5.5,0,1,0-.86-.5l-.57,1-.57-1a.5.5,0,1,0-.86.5l.56,1H26.51a.5.5,0,0,0-.5.5.5.5,0,0,0,.5.5h1.12v0l-.55,1a.5.5,0,0,0,.18.68.5.5,0,0,0,.68-.18l.56-1h0l.56,1a.5.5,0,1,0,.86-.5l-.57-1h1.14a.5.5,0,0,0,.5-.5A.51.51,0,0,0,30.51,28Zm-4,6H25.35l.57-1a.51.51,0,0,0-.19-.68.49.49,0,0,0-.68.18l-.57,1-.56-1a.51.51,0,0,0-.69-.18.49.49,0,0,0-.18.68l.57,1H22.48a.51.51,0,0,0-.5.5.5.5,0,0,0,.5.5H23.6s0,0,0,0l-.56,1a.5.5,0,1,0,.87.5l.55-1h0l.56,1a.5.5,0,0,0,.68.19.52.52,0,0,0,.19-.69l-.57-1h1.13a.5.5,0,0,0,.5-.5A.5.5,0,0,0,26.48,34Zm-5-3H20.36l.57-1a.49.49,0,0,0-.18-.68.51.51,0,0,0-.69.18l-.56,1-.57-1a.5.5,0,0,0-.87.5l.57,1H17.5a.5.5,0,0,0-.5.5.5.5,0,0,0,.5.5h1.11v0l-.56,1a.5.5,0,0,0,.19.68.5.5,0,0,0,.68-.18l.55-1h0l.56,1a.51.51,0,0,0,.69.18.5.5,0,0,0,.18-.68l-.57-1H21.5a.5.5,0,0,0,.5-.5A.51.51,0,0,0,21.5,31Z"/></g></g></g></svg>