<svg xmlns="http://www.w3.org/2000/svg" viewBox="0 0 40 20"><defs><style>.cls-1{fill:#fff;fill-rule:evenodd;}</style></defs><title>Fichier 10</title><g id="Calque_2" data-name="Calque 2"><g id="White_Icons" data-name="White Icons"><g id="Fog_Icon" data-name="Fog Icon"><path class="cls-1" d="M1,2H25a1,1,0,0,0,0-2H1A1,1,0,0,0,1,2ZM31,2h8a1,1,0,0,0,0-2H31a1,1,0,0,0,0,2ZM3,6A1,1,0,0,0,3,8h8a1,1,0,0,0,0-2ZM17,6a1,1,0,0,0,0,2H37a1,1,0,0,0,0-2Zm9,7a1,1,0,0,0-1-1H1a1,1,0,0,0,0,2H25A1,1,0,0,0,26,13Zm13-1H31a1,1,0,0,0,0,2h8a1,1,0,0,0,0-2ZM17,18H3a1,1,0,0,0,0,2H17a1,1,0,0,0,0-2Zm20,0H23a1,1,0,0,0,0,2H37a1,1,0,0,0,0-2Z"/></g></g></g></svg>